# xmcd
#
# Track frame offsets: 
#        150
#        15565
#        36677
#        55540
#
# Disc length: 1003 seconds
#
# Revision: 1
# Processed by: cddbd v1.5.2PL0 Copyright (c) Steve Scherf et al.
# Submitted via: ExactAudioCopy v0.99pb4
#
DISCID=2b03e904
DTITLE=Thermostatic - The Box
DYEAR=2007
DGENRE=Electronic
TTITLE0=The Box (Radio Edit)
TTITLE1=The Box (Tiger Baby Remix)
TTITLE2=The Box (White O Remix)
TTITLE3=The Box (Full Version)
EXTD=
EXTT0=
EXTT1=
EXTT2=
EXTT3=
PLAYORDER=
